<svg height='100px' width='100px'  fill="#ef3b39" xmlns="http://www.w3.org/2000/svg" xmlns:xlink="http://www.w3.org/1999/xlink" version="1.1" x="0px" y="0px" viewBox="0 0 32 32" enable-background="new 0 0 32 32" xml:space="preserve"><g><g><path d="M16,1C7.729,1,1,7.729,1,16s6.729,15,15,15s15-6.729,15-15S24.271,1,16,1z M16,29C8.8315,29,3,23.1685,3,16S8.8315,3,16,3    s13,5.8315,13,13S23.1685,29,16,29z"></path><path d="M16,12c-1.6543,0-3,1.3457-3,3v9c0,1.6543,1.3457,3,3,3s3-1.3457,3-3v-9C19,13.3457,17.6543,12,16,12z M17,24    c0,0.5513-0.4487,1-1,1s-1-0.4487-1-1v-9c0-0.5513,0.4487-1,1-1s1,0.4487,1,1V24z"></path><path d="M16,5c-1.6543,0-3,1.3457-3,3s1.3457,3,3,3s3-1.3457,3-3S17.6543,5,16,5z M16,9c-0.5513,0-1-0.4487-1-1s0.4487-1,1-1    s1,0.4487,1,1S16.5513,9,16,9z"></path></g></g></svg>