<svg height='100px' width='100px'  fill="#ef3b39" xmlns="http://www.w3.org/2000/svg" xmlns:xlink="http://www.w3.org/1999/xlink" version="1.1" x="0px" y="0px" viewBox="0 0 24 24" style="enable-background:new 0 0 24 24;" xml:space="preserve"><g><path d="M23.588,10.132h-0.426c-0.194-0.813-0.96-1.423-1.876-1.423h-6.421c-0.63,0-1.222,0.292-1.581,0.782   c-0.15,0.204-0.244,0.431-0.296,0.666c-0.719-0.356-1.426-0.243-1.969,0.019c-0.051-0.242-0.148-0.475-0.302-0.684   c-0.36-0.49-0.951-0.782-1.581-0.782H2.715c-0.916,0-1.682,0.61-1.876,1.423H0.412c-0.221,0-0.4,0.179-0.4,0.4s0.179,0.4,0.4,0.4   h0.377v2.536c0,1.006,0.864,1.824,1.926,1.824h5.504c0.848,0,1.607-0.537,1.847-1.306l0.884-2.829   c0.268-0.224,1.183-0.845,2.105,0.008l0.881,2.82c0.237,0.77,0.997,1.307,1.846,1.307h5.505c1.062,0,1.926-0.818,1.926-1.824   v-2.536h0.376c0.221,0,0.4-0.179,0.4-0.4S23.809,10.132,23.588,10.132z M9.302,13.748c-0.136,0.438-0.582,0.743-1.083,0.743H2.715   c-0.621,0-1.126-0.459-1.126-1.023v-2.935c0-0.565,0.505-1.024,1.126-1.024h6.421c0.376,0,0.727,0.17,0.937,0.456   c0.186,0.253,0.238,0.555,0.146,0.848L9.302,13.748z M21.286,14.491h-5.505c-0.502,0-0.946-0.305-1.082-0.743l-0.917-2.935   c-0.092-0.294-0.04-0.595,0.146-0.848c0.21-0.286,0.56-0.456,0.937-0.456h6.421c0.619,0,1.123,0.458,1.124,1.022   c0,0.001,0,0.001,0,0.002c0,0.002,0.001,0.003,0.001,0.005v2.931C22.411,14.032,21.906,14.491,21.286,14.491z"></path><path d="M3.318,9.922c-0.717,0-1.301,0.583-1.301,1.301c0,0.221,0.179,0.4,0.4,0.4s0.4-0.179,0.4-0.4   c0-0.276,0.225-0.501,0.501-0.501c0.221,0,0.4-0.179,0.4-0.4S3.539,9.922,3.318,9.922z"></path><path d="M15.459,9.922c-0.718,0-1.302,0.583-1.302,1.301c0,0.221,0.18,0.4,0.4,0.4s0.4-0.179,0.4-0.4   c0-0.276,0.225-0.501,0.501-0.501c0.221,0,0.4-0.179,0.4-0.4S15.68,9.922,15.459,9.922z"></path></g></svg>